<svg width="16" height="16" viewBox="0 0 16 16" fill="none" xmlns="http://www.w3.org/2000/svg">
<g clip-path="url(#clip0_1437_648)">
<path opacity="0.4" d="M16 8.00029C16.0001 7.44047 15.8292 6.89399 15.5104 6.43385C15.1915 5.97372 14.7398 5.62186 14.2157 5.42529C14.4469 4.91578 14.5172 4.34787 14.4172 3.79737C14.3172 3.24687 14.0516 2.73996 13.656 2.34433C13.2604 1.94869 12.7535 1.68315 12.203 1.58315C11.6525 1.48315 11.0845 1.55345 10.575 1.78466C10.3785 1.26044 10.0267 0.80869 9.56654 0.489781C9.1064 0.170873 8.55989 0 8.00004 0C7.4402 0 6.89368 0.170873 6.43355 0.489781C5.97341 0.80869 5.62157 1.26044 5.42504 1.78466C4.91554 1.55345 4.34763 1.48315 3.79713 1.58315C3.24662 1.68315 2.73972 1.94869 2.34408 2.34433C1.94845 2.73996 1.68291 3.24687 1.58291 3.79737C1.48291 4.34787 1.5532 4.91578 1.78442 5.42529C1.2602 5.62181 0.808446 5.97365 0.489537 6.43379C0.170628 6.89393 -0.000244141 7.44044 -0.000244141 8.00029C-0.000244141 8.56014 0.170628 9.10665 0.489537 9.56678C0.808446 10.0269 1.2602 10.3788 1.78442 10.5753C1.5532 11.0848 1.48291 11.6527 1.58291 12.2032C1.68291 12.7537 1.94845 13.2606 2.34408 13.6562C2.73972 14.0519 3.24662 14.3174 3.79713 14.4174C4.34763 14.5174 4.91554 14.4471 5.42504 14.2159C5.62157 14.7401 5.97341 15.1919 6.43355 15.5108C6.89368 15.8297 7.4402 16.0006 8.00004 16.0006C8.55989 16.0006 9.1064 15.8297 9.56654 15.5108C10.0267 15.1919 10.3785 14.7401 10.575 14.2159C11.0845 14.4471 11.6525 14.5174 12.203 14.4174C12.7535 14.3174 13.2604 14.0519 13.656 13.6562C14.0516 13.2606 14.3172 12.7537 14.4172 12.2032C14.5172 11.6527 14.4469 11.0848 14.2157 10.5753C14.7398 10.3787 15.1915 10.0269 15.5104 9.56672C15.8292 9.10659 16.0001 8.5601 16 8.00029V8.00029ZM6.00004 5.00029C6.19783 5.00029 6.39117 5.05894 6.55561 5.16882C6.72006 5.2787 6.84824 5.43488 6.92392 5.61761C6.99961 5.80033 7.01941 6.0014 6.98083 6.19538C6.94224 6.38936 6.847 6.56754 6.70715 6.7074C6.5673 6.84725 6.38912 6.94249 6.19513 6.98107C6.00115 7.01966 5.80009 6.99986 5.61736 6.92417C5.43463 6.84848 5.27846 6.72031 5.16857 6.55586C5.05869 6.39141 5.00004 6.19807 5.00004 6.00029C5.00004 5.73507 5.1054 5.48072 5.29294 5.29318C5.48047 5.10565 5.73483 5.00029 6.00004 5.00029V5.00029ZM6.38379 10.6769C6.33736 10.7233 6.28224 10.7601 6.22157 10.7853C6.1609 10.8104 6.09587 10.8233 6.0302 10.8233C5.96453 10.8233 5.8995 10.8104 5.83883 10.7853C5.77816 10.7601 5.72304 10.7233 5.67661 10.6769L5.32317 10.3234C5.27673 10.277 5.23989 10.2219 5.21475 10.1612C5.18962 10.1005 5.17668 10.0355 5.17668 9.96982C5.17668 9.90415 5.18962 9.83912 5.21475 9.77845C5.23989 9.71778 5.27673 9.66266 5.32317 9.61623L9.61598 5.32341C9.66241 5.27697 9.71754 5.24013 9.77821 5.215C9.83888 5.18986 9.9039 5.17693 9.96957 5.17693C10.0352 5.17693 10.1003 5.18986 10.1609 5.215C10.2216 5.24013 10.2767 5.27697 10.3232 5.32341L10.6766 5.67685C10.723 5.72328 10.7599 5.77841 10.785 5.83908C10.8102 5.89975 10.8231 5.96477 10.8231 6.03044C10.8231 6.09612 10.8102 6.16114 10.785 6.22181C10.7599 6.28248 10.723 6.33761 10.6766 6.38404L6.38379 10.6769ZM10 11.0003C9.80226 11.0003 9.60892 10.9416 9.44447 10.8318C9.28002 10.7219 9.15185 10.5657 9.07616 10.383C9.00048 10.2002 8.98067 9.99918 9.01926 9.8052C9.05784 9.61122 9.15308 9.43303 9.29294 9.29318C9.43279 9.15333 9.61097 9.05809 9.80495 9.0195C9.99893 8.98092 10.2 9.00072 10.3827 9.07641C10.5655 9.1521 10.7216 9.28027 10.8315 9.44472C10.9414 9.60917 11 9.80251 11 10.0003C11 10.2655 10.8947 10.5199 10.7072 10.7074C10.5196 10.8949 10.2653 11.0003 10 11.0003Z" fill="#39CDCC"/>
<path d="M6 5C6.19778 5 6.39112 5.05865 6.55557 5.16853C6.72002 5.27841 6.84819 5.43459 6.92388 5.61732C6.99957 5.80004 7.01937 6.00111 6.98079 6.19509C6.9422 6.38907 6.84696 6.56725 6.70711 6.70711C6.56725 6.84696 6.38907 6.9422 6.19509 6.98079C6.00111 7.01937 5.80004 6.99957 5.61732 6.92388C5.43459 6.84819 5.27841 6.72002 5.16853 6.55557C5.05865 6.39112 5 6.19778 5 6C5 5.73478 5.10536 5.48043 5.29289 5.29289C5.48043 5.10536 5.73478 5 6 5V5ZM6.38375 10.6766C6.33732 10.723 6.28219 10.7598 6.22152 10.785C6.16085 10.8101 6.09583 10.823 6.03016 10.823C5.96449 10.823 5.89946 10.8101 5.83879 10.785C5.77812 10.7598 5.72299 10.723 5.67656 10.6766L5.32312 10.3231C5.27668 10.2767 5.23984 10.2216 5.21471 10.1609C5.18957 10.1002 5.17664 10.0352 5.17664 9.96953C5.17664 9.90386 5.18957 9.83883 5.21471 9.77816C5.23984 9.71749 5.27668 9.66237 5.32312 9.61594L9.61594 5.32312C9.66237 5.27668 9.71749 5.23984 9.77816 5.21471C9.83883 5.18957 9.90386 5.17664 9.96953 5.17664C10.0352 5.17664 10.1002 5.18957 10.1609 5.21471C10.2216 5.23984 10.2767 5.27668 10.3231 5.32312L10.6766 5.67656C10.723 5.72299 10.7598 5.77812 10.785 5.83879C10.8101 5.89946 10.823 5.96449 10.823 6.03016C10.823 6.09583 10.8101 6.16085 10.785 6.22152C10.7598 6.28219 10.723 6.33732 10.6766 6.38375L6.38375 10.6766ZM10 11C9.80222 11 9.60888 10.9414 9.44443 10.8315C9.27998 10.7216 9.15181 10.5654 9.07612 10.3827C9.00043 10.2 8.98063 9.99889 9.01921 9.80491C9.0578 9.61093 9.15304 9.43275 9.29289 9.29289C9.43275 9.15304 9.61093 9.0578 9.80491 9.01921C9.99889 8.98063 10.2 9.00043 10.3827 9.07612C10.5654 9.15181 10.7216 9.27998 10.8315 9.44443C10.9414 9.60888 11 9.80222 11 10C11 10.2652 10.8946 10.5196 10.7071 10.7071C10.5196 10.8946 10.2652 11 10 11Z" fill="#39CDCC"/>
</g>
<defs>
<clipPath id="clip0_1437_648">
<rect width="16" height="16" fill="white"/>
</clipPath>
</defs>
</svg>
