<svg width="16" height="13" viewBox="0 0 16 13" fill="none" xmlns="http://www.w3.org/2000/svg">
<g clip-path="url(#clip0_1437_823)">
<path opacity="0.4" d="M15.8801 4.85974L14.7401 5.99974L15.8801 7.13974C15.9176 7.17715 15.9473 7.22157 15.9676 7.27047C15.9878 7.31938 15.9983 7.3718 15.9983 7.42474C15.9983 7.47768 15.9878 7.5301 15.9676 7.579C15.9473 7.62791 15.9176 7.67233 15.8801 7.70974L15.3101 8.27974C15.2727 8.3172 15.2283 8.34692 15.1794 8.3672C15.1305 8.38748 15.078 8.39791 15.0251 8.39791C14.9722 8.39791 14.9197 8.38748 14.8708 8.3672C14.8219 8.34692 14.7775 8.3172 14.7401 8.27974L13.6001 7.13974L12.4601 8.27974C12.4227 8.3172 12.3783 8.34692 12.3294 8.3672C12.2804 8.38748 12.228 8.39791 12.1751 8.39791C12.1221 8.39791 12.0697 8.38748 12.0208 8.3672C11.9719 8.34692 11.9275 8.3172 11.8901 8.27974L11.3201 7.70974C11.2826 7.67233 11.2529 7.62791 11.2326 7.579C11.2123 7.5301 11.2019 7.47768 11.2019 7.42474C11.2019 7.3718 11.2123 7.31938 11.2326 7.27047C11.2529 7.22157 11.2826 7.17715 11.3201 7.13974L12.4601 5.99974L11.3201 4.85974C11.2826 4.82233 11.2529 4.77791 11.2326 4.729C11.2123 4.6801 11.2019 4.62768 11.2019 4.57474C11.2019 4.5218 11.2123 4.46938 11.2326 4.42047C11.2529 4.37157 11.2826 4.32715 11.3201 4.28974L11.8901 3.71974C11.9275 3.68228 11.9719 3.65256 12.0208 3.63228C12.0697 3.612 12.1221 3.60156 12.1751 3.60156C12.228 3.60156 12.2804 3.612 12.3294 3.63228C12.3783 3.65256 12.4227 3.68228 12.4601 3.71974L13.6001 4.85974L14.7401 3.71974C14.7775 3.68228 14.8219 3.65256 14.8708 3.63228C14.9197 3.612 14.9722 3.60156 15.0251 3.60156C15.078 3.60156 15.1305 3.612 15.1794 3.63228C15.2283 3.65256 15.2727 3.68228 15.3101 3.71974L15.8801 4.28974C15.9176 4.32715 15.9473 4.37157 15.9676 4.42047C15.9878 4.46938 15.9983 4.5218 15.9983 4.57474C15.9983 4.62768 15.9878 4.6801 15.9676 4.729C15.9473 4.77791 15.9176 4.82233 15.8801 4.85974V4.85974Z" fill="#39CDCC"/>
<path d="M7.84 7.2H7.4225C6.85106 7.46352 6.22927 7.59999 5.6 7.59999C4.97073 7.59999 4.34894 7.46352 3.7775 7.2H3.36C2.46893 7.2002 1.61442 7.55426 0.984341 8.18434C0.354262 8.81442 0.000198832 9.66894 0 10.56L0 11.6C0 11.9183 0.126428 12.2235 0.351472 12.4485C0.576516 12.6736 0.88174 12.8 1.2 12.8H10C10.3183 12.8 10.6235 12.6736 10.8485 12.4485C11.0736 12.2235 11.2 11.9183 11.2 11.6V10.56C11.1998 9.66894 10.8457 8.81442 10.2157 8.18434C9.58558 7.55426 8.73107 7.2002 7.84 7.2ZM5.6 6.4C6.2329 6.4 6.85159 6.21233 7.37782 5.8607C7.90406 5.50908 8.31421 5.00931 8.55641 4.42459C8.79862 3.83986 8.86199 3.19645 8.73851 2.57571C8.61504 1.95497 8.31027 1.38479 7.86274 0.93726C7.41521 0.489732 6.84503 0.184961 6.22429 0.0614885C5.60355 -0.0619842 4.96014 0.0013865 4.37541 0.243587C3.79069 0.485787 3.29092 0.895939 2.9393 1.42218C2.58768 1.94841 2.4 2.5671 2.4 3.2C2.4 4.04869 2.73714 4.86263 3.33726 5.46274C3.93737 6.06286 4.75131 6.4 5.6 6.4Z" fill="#39CDCC"/>
</g>
<defs>
<clipPath id="clip0_1437_823">
<rect width="16" height="12.8" fill="white"/>
</clipPath>
</defs>
</svg>
