<svg width="16" height="16" viewBox="0 0 16 16" fill="none" xmlns="http://www.w3.org/2000/svg">
<path d="M9.40747 6.34863C9.5692 6.33342 9.71705 6.44552 9.76001 6.5957L9.77954 6.66602L9.77368 6.66895C9.774 6.67054 9.77432 6.67216 9.77466 6.67383C9.78289 6.71463 9.79425 6.77258 9.80591 6.84375C9.82919 6.98601 9.85442 7.18375 9.86157 7.41699C9.87583 7.88293 9.81888 8.49602 9.52954 9.09863L9.52856 9.10059C9.20059 9.75563 8.5634 10.4928 8.32544 10.7529C8.33329 10.8847 8.34387 10.9926 8.35278 11.0693C8.35764 11.1111 8.36138 11.1441 8.3645 11.166C8.36607 11.177 8.36756 11.1859 8.36841 11.1914C8.36857 11.1925 8.36828 11.1935 8.36841 11.1943C8.4136 11.3839 8.27373 11.5627 8.09204 11.5859L8.07935 11.5879V11.5869H8.03149C7.88386 11.5869 7.72639 11.4852 7.69556 11.3223C7.69216 11.3124 7.68832 11.3035 7.68677 11.2969C7.68372 11.2838 7.68089 11.2674 7.67798 11.25C7.67215 11.2151 7.66647 11.1691 7.6604 11.1143C7.64858 11.0075 7.63636 10.8635 7.62817 10.6934C7.62172 10.6777 7.61159 10.6552 7.59595 10.624C7.58106 10.5943 7.56394 10.5585 7.5481 10.5215C7.29637 10.2765 6.91327 9.8635 6.61255 9.3584C6.30706 8.84513 6.07936 8.22503 6.17212 7.58496C6.17815 7.44813 6.26666 7.34601 6.37915 7.30664L6.43091 7.29297C6.97642 7.15854 7.38933 7.30923 7.65356 7.47754C7.99802 6.98428 8.40509 6.7028 8.74048 6.54492C8.91712 6.4618 9.07359 6.41217 9.1897 6.38379C9.28667 6.3601 9.35989 6.35203 9.3938 6.34961V6.34863C9.39637 6.34828 9.39904 6.34892 9.40161 6.34863C9.40383 6.34854 9.4058 6.34766 9.40747 6.34766V6.34863ZM9.13794 7.12305C8.97835 7.18251 8.77769 7.2854 8.57251 7.45801C8.68548 7.39534 8.82671 7.40711 8.93774 7.48633C9.09927 7.60183 9.11759 7.81002 9.00903 7.96191V7.96289C8.62957 8.48172 8.44519 9.07551 8.35571 9.61035C8.56107 9.34449 8.76617 9.04431 8.90259 8.77148C9.20829 8.15958 9.19912 7.49432 9.13794 7.12305ZM8.46997 7.54785C8.30748 7.70383 8.14682 7.90739 8.00806 8.17383C7.91373 8.37104 7.8614 8.57596 7.84106 8.78027C7.9752 8.36675 8.17218 7.94501 8.46216 7.55762C8.4646 7.55421 8.46745 7.55113 8.46997 7.54785ZM6.82251 7.93555C6.82584 8.03676 6.83686 8.13829 6.85864 8.23926C6.88052 8.17812 6.92081 8.12166 6.98169 8.07812L6.99048 8.07227C7.06083 8.03213 7.14344 8.01566 7.2229 8.02539C7.12139 7.9744 6.98865 7.93555 6.82251 7.93555Z" fill="#39CDCC" stroke="#39CDCC" stroke-width="0.2"/>
<path d="M4.80029 5.41992C4.98355 5.42006 5.14014 5.57649 5.14014 5.75977V11.8398C5.13996 12.023 4.98344 12.1796 4.80029 12.1797C4.61704 12.1797 4.46063 12.0231 4.46045 11.8398V5.75977C4.46045 5.57641 4.61694 5.41992 4.80029 5.41992Z" fill="#39CDCC" stroke="#39CDCC" stroke-width="0.2"/>
<path d="M3.2002 5.41992C3.38345 5.42006 3.54004 5.57649 3.54004 5.75977V11.8398C3.53986 12.023 3.38334 12.1796 3.2002 12.1797C3.01695 12.1797 2.86053 12.0231 2.86035 11.8398V5.75977C2.86035 5.57641 3.01684 5.41992 3.2002 5.41992Z" fill="#39CDCC" stroke="#39CDCC" stroke-width="0.2"/>
<path d="M11.2002 5.41992C11.3834 5.42006 11.54 5.57649 11.54 5.75977V11.8398C11.5399 12.023 11.3833 12.1796 11.2002 12.1797C11.0169 12.1797 10.8605 12.0231 10.8604 11.8398V5.75977C10.8604 5.57641 11.0168 5.41992 11.2002 5.41992Z" fill="#39CDCC" stroke="#39CDCC" stroke-width="0.2"/>
<path d="M12.8003 5.41992C12.9835 5.42006 13.1401 5.57649 13.1401 5.75977V11.8398C13.14 12.023 12.9834 12.1796 12.8003 12.1797C12.617 12.1797 12.4606 12.0231 12.4604 11.8398V5.75977C12.4604 5.57641 12.6169 5.41992 12.8003 5.41992Z" fill="#39CDCC" stroke="#39CDCC" stroke-width="0.2"/>
<path d="M7.83618 1.46582C7.94323 1.40143 8.08406 1.395 8.18677 1.47168L13.5208 4.64844C13.6353 4.70062 13.716 4.83036 13.7161 4.95898V4.97168L13.7141 4.9707C13.7005 5.08271 13.6324 5.18712 13.5354 5.24707L13.5823 5.2998H2.63989C2.48447 5.29974 2.34211 5.18949 2.31763 5.04004L2.3186 5.03906C2.27903 4.8817 2.35227 4.74939 2.4729 4.66895L2.47681 4.66602L7.83618 1.4668V1.46582ZM3.86548 4.62012H12.1194L7.99927 2.14746L3.86548 4.62012Z" fill="#39CDCC" stroke="#39CDCC" stroke-width="0.2"/>
<path d="M13.3601 12.2998C13.5435 12.2998 13.7 12.4563 13.7 12.6396C13.6998 12.8229 13.5434 12.9795 13.3601 12.9795H2.64038C2.45711 12.9795 2.30067 12.8229 2.30054 12.6396C2.30054 12.4563 2.45703 12.2998 2.64038 12.2998H13.3601Z" fill="#39CDCC" stroke="#39CDCC" stroke-width="0.2"/>
<path d="M14.1597 13.1006C14.343 13.1006 14.5005 13.2571 14.5005 13.4404C14.5004 13.6237 14.3429 13.7803 14.1597 13.7803H1.84033C1.65706 13.7803 1.50062 13.6237 1.50049 13.4404C1.50049 13.2571 1.65698 13.1006 1.84033 13.1006H14.1597Z" fill="#39CDCC" stroke="#39CDCC" stroke-width="0.2"/>
<path d="M14.9602 13.9004C15.1435 13.9005 15.3 14.0569 15.3 14.2402C15.2999 14.4234 15.1434 14.58 14.9602 14.5801H1.04028C0.857008 14.5801 0.700573 14.4235 0.700439 14.2402C0.700439 14.0569 0.85693 13.9004 1.04028 13.9004H14.9602Z" fill="#39CDCC" stroke="#39CDCC" stroke-width="0.2"/>
</svg>
