<svg width="16" height="16" viewBox="0 0 16 16" fill="none" xmlns="http://www.w3.org/2000/svg">
<g clip-path="url(#clip0_1437_697)">
<path opacity="0.4" d="M4.76277 11.8766C4.27067 11.7744 3.79408 11.6083 3.34517 11.3823C2.56288 11.4982 1.76385 11.4053 1.02903 11.113C0.608867 10.9446 0.239485 11.4467 0.52586 11.7972C0.959982 12.3264 1.47951 12.7794 2.06296 13.1373C3.57357 14.0706 5.44696 14.2439 7.10003 13.6831C7.5433 13.092 7.83326 12.4003 7.94402 11.6698C6.92092 12.0207 5.82268 12.0921 4.76277 11.8766V11.8766ZM4.33052 7.94443C3.97953 6.92132 3.90814 5.82304 4.12373 4.7631C4.22582 4.27103 4.39195 3.79446 4.61787 3.34556C4.50203 2.56325 4.59493 1.76421 4.88715 1.02934C5.05561 0.609296 4.55342 0.239728 4.20295 0.526044C3.67372 0.960135 3.22082 1.47969 2.863 2.06321C1.92966 3.57389 1.75632 5.44724 2.31711 7.10032C2.90826 7.54361 3.59998 7.83361 4.33052 7.94443V7.94443ZM11.6693 8.05613C12.0203 9.07924 12.0917 10.1775 11.8761 11.2375C11.774 11.7295 11.6079 12.2061 11.382 12.655C11.4978 13.4373 11.4049 14.2363 11.1127 14.9712C10.9442 15.3913 11.4464 15.7608 11.7969 15.4745C12.3261 15.0404 12.779 14.5208 13.1368 13.9373C14.0702 12.4267 14.2435 10.5533 13.6827 8.90024C13.0916 8.45695 12.3999 8.16695 11.6693 8.05613V8.05613ZM15.474 4.20335C15.0399 3.67409 14.5204 3.22114 13.9369 2.8632C12.4263 1.92991 10.5529 1.75663 8.89982 2.31742C8.45653 2.90855 8.16657 3.60027 8.05583 4.33079C9.07892 3.97986 10.1772 3.90847 11.2371 4.124C11.7292 4.22612 12.2058 4.39226 12.6547 4.6182C13.437 4.50226 14.236 4.59516 14.9708 4.88749C15.391 5.05595 15.7604 4.55381 15.474 4.20335Z" fill="#39CDCC"/>
<path d="M15.8306 8.56534C15.3057 6.3433 13.4763 4.57041 11.2373 4.12333C10.1773 3.90779 9.0791 3.97918 8.056 4.33011C8.16973 3.5734 8.47491 2.85829 8.94257 2.25262C9.41024 1.64696 10.0249 1.17081 10.7282 0.869362C11.1444 0.691383 11.0506 0.0750498 10.6003 0.0297017C9.91909 -0.0375299 9.23144 0.00956678 8.56577 0.169045C6.34386 0.693947 4.57092 2.52341 4.12391 4.76242C3.90832 5.82236 3.9797 6.92065 4.33069 7.94376C3.57398 7.83 2.85887 7.52481 2.25319 7.05713C1.64752 6.58945 1.17137 5.97479 0.869905 5.27146C0.691928 4.85538 0.0755987 4.94907 0.0301902 5.39939C-0.0370503 6.08058 0.0100669 6.76822 0.169593 7.43387C0.694491 9.65592 2.52395 11.4288 4.76294 11.8759C5.82286 12.0914 6.9211 12.02 7.94419 11.6691C7.83046 12.4258 7.52529 13.1409 7.05762 13.7466C6.58996 14.3523 5.9753 14.8284 5.27197 15.1298C4.85584 15.3078 4.94959 15.9242 5.3999 15.9695C6.0811 16.0367 6.76875 15.9896 7.43443 15.8302C9.65634 15.3053 11.4293 13.4758 11.8763 11.2368C12.0919 10.1768 12.0205 9.07856 11.6695 8.05545C12.4262 8.16921 13.1413 8.4744 13.747 8.94208C14.3527 9.40976 14.8288 10.0244 15.1303 10.7278C15.3083 11.1438 15.9246 11.0501 15.97 10.5998C16.0372 9.91863 15.9901 9.23099 15.8306 8.56534V8.56534ZM8.0001 9.4996C7.70343 9.49961 7.41342 9.41164 7.16674 9.24682C6.92007 9.08199 6.7278 8.84773 6.61427 8.57364C6.50074 8.29955 6.47103 7.99795 6.52891 7.70698C6.58678 7.41601 6.72964 7.14873 6.93942 6.93895C7.1492 6.72917 7.41648 6.58631 7.70745 6.52843C7.99842 6.47055 8.30002 6.50026 8.57411 6.61379C8.8482 6.72732 9.08247 6.91958 9.24729 7.16625C9.41211 7.41292 9.50009 7.70293 9.50009 7.99961C9.50008 8.39743 9.34204 8.77895 9.06074 9.06025C8.77944 9.34155 8.39792 9.49959 8.0001 9.4996Z" fill="#39CDCC"/>
</g>
<defs>
<clipPath id="clip0_1437_697">
<rect width="16" height="16" fill="white"/>
</clipPath>
</defs>
</svg>
