<svg width="16" height="13" viewBox="0 0 16 13" fill="none" xmlns="http://www.w3.org/2000/svg">
<path opacity="0.4" d="M12 6.39961C12.4747 6.39961 12.9387 6.25885 13.3334 5.99514C13.728 5.73142 14.0356 5.35659 14.2173 4.91805C14.399 4.47951 14.4465 3.99695 14.3539 3.53139C14.2613 3.06584 14.0327 2.6382 13.697 2.30255C13.3614 1.96691 12.9338 1.73833 12.4682 1.64573C12.0026 1.55312 11.5201 1.60065 11.0815 1.7823C10.643 1.96395 10.2682 2.27156 10.0044 2.66624C9.74073 3.06092 9.59997 3.52494 9.59997 3.99961C9.59997 4.63613 9.85283 5.24658 10.3029 5.69667C10.753 6.14675 11.3635 6.39961 12 6.39961ZM13.2 7.19961H13.105C12.7575 7.31961 12.39 7.39961 12 7.39961C11.61 7.39961 11.2425 7.31961 10.895 7.19961H10.8C10.29 7.19961 9.81997 7.34711 9.40747 7.58461C10.0175 8.24211 10.4 9.11461 10.4 10.0796V11.0396C10.4 11.0946 10.3875 11.1471 10.385 11.1996H14.8C15.1183 11.1996 15.4235 11.0732 15.6485 10.8481C15.8736 10.6231 16 10.3179 16 9.99961C16.0002 9.63185 15.9279 9.26766 15.7873 8.92786C15.6466 8.58806 15.4404 8.27931 15.1803 8.01927C14.9203 7.75923 14.6115 7.55299 14.2717 7.41235C13.9319 7.2717 13.5677 7.19941 13.2 7.19961V7.19961Z" fill="#213F7D"/>
<path d="M4.8 6.39981C5.35379 6.39981 5.89514 6.23559 6.3556 5.92792C6.81605 5.62025 7.17494 5.18295 7.38686 4.67132C7.59879 4.15969 7.65424 3.5967 7.5462 3.05355C7.43816 2.51041 7.17149 2.01149 6.7799 1.61991C6.38831 1.22832 5.8894 0.961646 5.34625 0.853607C4.80311 0.745569 4.24012 0.801018 3.72849 1.01294C3.21685 1.22487 2.77955 1.58375 2.47189 2.04421C2.16422 2.50467 2 3.04602 2 3.59981C1.9998 3.96756 2.07209 4.33175 2.21274 4.67155C2.35338 5.01135 2.55962 5.3201 2.81966 5.58014C3.0797 5.84019 3.38845 6.04643 3.72825 6.18707C4.06805 6.32771 4.43224 6.4 4.8 6.39981ZM6.72 7.19981H6.5125C5.97911 7.46052 5.39369 7.59726 4.8 7.59981C4.185 7.59981 3.61 7.44981 3.0875 7.19981H2.88C2.11624 7.20001 1.38381 7.5035 0.843752 8.04356C0.30369 8.58362 0.000198819 9.31604 0 10.0798L0 10.7998C0 11.1181 0.126428 11.4233 0.351472 11.6483C0.576516 11.8734 0.88174 11.9998 1.2 11.9998H8.4C8.71826 11.9998 9.02348 11.8734 9.24853 11.6483C9.47357 11.4233 9.6 11.1181 9.6 10.7998V10.0798C9.5998 9.31604 9.29631 8.58362 8.75625 8.04356C8.21619 7.5035 7.48376 7.20001 6.72 7.19981V7.19981Z" fill="#213F7D"/>
</svg>
